<svg width="39" height="39" viewBox="0 0 39 39" fill="none" xmlns="http://www.w3.org/2000/svg">
<path d="M1.19774 8.94764H32.3391C33.0008 8.94764 33.5368 8.35409 33.5368 7.62126V2.31576C33.5368 1.58293 33.0008 0.98938 32.3391 0.98938H1.19774C0.53599 0.98938 0 1.58293 0 2.31576V7.62126C0 8.35409 0.53599 8.94764 1.19774 8.94764ZM37.1301 15.5795H5.98872C5.32696 15.5795 4.79097 16.1731 4.79097 16.9059V22.2114C4.79097 22.9442 5.32696 23.5378 5.98872 23.5378H37.1301C37.7918 23.5378 38.3278 22.9442 38.3278 22.2114V16.9059C38.3278 16.1731 37.7918 15.5795 37.1301 15.5795ZM32.3391 30.1697H1.19774C0.53599 30.1697 0 30.7632 0 31.496V36.8016C0 37.5344 0.53599 38.1279 1.19774 38.1279H32.3391C33.0008 38.1279 33.5368 37.5344 33.5368 36.8016V31.496C33.5368 30.7632 33.0008 30.1697 32.3391 30.1697Z" fill="black"/>
</svg>
